# xmcd
#
# Track frame offsets:
#	150
#	8625
#	31008
#	54159
#	67603
#	89040
#	99367
#	126155
#	182152
#	186234
#	195966
#	206160
#	222137
#	240078
#
# Disc length: 3495 seconds
# Revision: 0
# Processed by: cddbd v1.5.2PL0 Copyright (c) Steve Scherf et al.
# Submitted via: dBpowerAMP V12.0
#
DISCID=ab0da50e
DTITLE=James Brown -  Live at Chastain Park
DYEAR=2015
DGENRE=Funk
TTITLE0=Give It Up Or Turn It Loose
TTITLE1=It's Too Funky In Here
TTITLE2=Try Me
TTITLE3=Get On The Goodfoot
TTITLE4=Prisoner Of Love
TTITLE5=Get Up Offa That Thing
TTITLE6=Georgia On My Mind
TTITLE7=It's A Man's Man's Man's World
TTITLE8=Cold Sweat
TTITLE9=I Can't Stand Myself
TTITLE10=Papa's Got A Brand New Bag
TTITLE11=I Got You (I Feel Good)
TTITLE12=Please, Please, Please
TTITLE13=Jam
EXTD=
EXTT0=
EXTT1=
EXTT2=
EXTT3=
EXTT4=
EXTT5=
EXTT6=
EXTT7=
EXTT8=
EXTT9=
EXTT10=
EXTT11=
EXTT12=
EXTT13=
PLAYORDER=
